<svg width="615" height="683" viewBox="0 0 615 683" fill="none" xmlns="http://www.w3.org/2000/svg">
<path d="M288.667 2.13335C259.467 8.40001 233.867 32.6667 225.2 62C224 66.4 222.533 76.8 222.133 85.2L221.333 100.267L213.333 103.333C194 110.533 166.8 126.267 149.2 140.133L140.933 146.667L130.533 140.8C116.133 132.667 105.067 129.2 90.6665 128.4C65.4665 126.933 43.3332 135.6 25.3332 153.867C8.39984 170.933 0.666504 189.467 0.666504 213.333C0.666504 244.133 15.5998 270.133 43.0665 287.2C56.1332 295.2 55.3332 292.933 52.9332 314.4C50.3998 336.267 50.9332 355.2 54.6665 383.333L55.3332 388.667L43.8665 395.333C16.3998 411.2 0.666504 438.133 0.666504 469.333C0.666504 493.2 8.39984 511.733 25.3332 528.8C36.9332 540.533 44.1332 545.067 59.3332 550.4C68.1332 553.467 71.4665 553.867 85.9998 553.867C105.2 553.867 112.933 551.867 130.4 542L140.8 536.133L149.067 542.533C167.2 556.667 194.133 572.133 213.333 579.333L221.333 582.4L222.133 597.467C223.467 623.733 230.533 640.667 247.333 657.333C280.8 690.933 334 690.933 367.333 657.467C384.4 640.267 392.533 619.867 392.667 594.533V582.933L400.4 579.867C421.867 571.333 448.133 556.267 465.6 542.533L473.733 536L483.333 541.467C511.067 557.467 539.6 558.8 567.333 545.2C576.267 540.8 580.933 537.333 589.333 528.8C606.267 511.733 614 493.2 614 469.333C614 445.467 606.267 426.933 589.333 409.867C582.933 403.6 574.933 397.067 569.333 393.867C558.667 387.867 559.333 390.533 562 365.333C563.867 347.467 563.2 320.933 560.533 304C559.733 298.267 559.6 293.867 560.267 293.733C566.533 291.6 580.667 281.333 589.333 272.667C597.333 264.8 601.333 259.467 604.933 252C628.133 204.8 605.6 149.867 555.733 132.4C546.667 129.2 543.2 128.8 529.333 128.667C510.267 128.667 500.533 131.2 484.267 140.667L473.867 146.533L465.6 140.133C447.733 126.133 421.6 111.2 400.4 102.8L392.667 99.7334V88.1334C392.667 72.4 389.733 60 383.067 46.6667C365.867 12.4 326.8 -6.13332 288.667 2.13335ZM322.533 61.3333C325.2 63.2 329.067 67.0667 331.067 69.8667C334.667 75.0667 334.667 75.3334 335.333 101.867C336 128.133 336.133 128.8 339.6 134.933C344.267 142.8 349.067 145.6 366.667 151.333C395.6 160.667 418.4 174 443.067 195.867C463.733 214.133 469.067 214.667 493.067 201.2C518.533 186.8 521.733 185.333 528.933 185.333C545.333 185.333 557.2 197.067 557.2 213.333C557.2 221.2 553.867 229.333 548.8 233.867C547.2 235.333 537.067 241.6 526.267 247.867C509.2 257.867 506.267 260.133 502.8 265.733C497.867 273.867 497.6 281.2 501.733 299.333C504 309.067 505.067 318.533 505.6 334.267C506.4 356.933 505.2 369.2 500.533 389.333C497.2 403.2 498 409.733 503.733 418.133C507.333 423.333 511.333 426.267 527.333 435.6C537.867 441.733 547.733 447.733 549.067 449.067C557.333 456.533 559.6 472.4 553.867 482.667C549.067 491.467 541.2 496.4 530.8 497.067C521.333 497.733 521.467 497.733 495.2 482.667C469.467 468 463.733 468.4 442.533 487.333C418.8 508.4 395.333 522 366.667 531.333C349.067 537.067 344.267 539.867 339.6 547.733C336.133 553.867 336 554.533 335.333 580.8C334.667 606.533 334.533 607.733 331.333 612.4C325.733 620.8 318.933 624.533 308.8 625.067C297.867 625.6 290 622 284 613.467L280 607.733L279.333 580.933C278.667 554.533 278.533 553.867 275.067 547.733C270.4 539.867 265.467 536.933 247.733 531.2C218.8 521.733 196.267 508.667 171.6 486.8C150.933 468.533 145.6 468 121.6 481.467C96.1332 495.867 92.9332 497.333 85.7332 497.333C69.3332 497.333 57.4665 485.6 57.4665 469.333C57.4665 461.6 60.7998 453.333 65.7332 448.933C67.1998 447.6 77.3332 441.333 88.1332 434.933C105.467 424.8 108.4 422.533 111.867 416.933C116.933 408.8 117.067 401.467 112.667 382.667C109.733 370.267 109.467 365.6 109.467 341.333C109.467 317.067 109.733 312.4 112.667 300C119.333 271.733 116.533 264.4 93.9998 251.067C68.1332 236 64.2665 233.067 60.7998 226.8C53.9998 214.267 57.8665 198.4 69.7332 190.133C74.2665 186.933 77.1998 186 83.8665 185.6C93.3332 184.933 93.1998 184.933 119.467 200C145.2 214.667 150.933 214.267 172.133 195.467C194.8 175.2 219.867 160.4 244.667 152.8C262.4 147.2 270 142.8 274.667 135.333L278.667 128.933L279.333 101.867L280 74.9334L284 69.2C290 60.6667 297.867 57.0667 308.8 57.6C315.467 58 318.8 58.9333 322.533 61.3333Z" fill="white"/>
<path d="M283.733 230C261.2 235.2 243.333 245.2 226.667 261.867C204.933 283.733 194 310.4 194 341.333C194 404 244.267 454.667 306.667 454.667C338.533 454.667 365.067 443.733 387.467 421.467C409.733 399.067 420.667 372.533 420.667 340.933C420.667 325.067 418.533 314.133 412.8 299.333C407.067 284.4 399.333 273.2 386 260C372.667 246.8 360.533 239.467 342 233.2C330.533 229.333 327.6 228.933 310.667 228.533C298 228.267 289.333 228.667 283.733 230ZM316.8 285.333C346.933 291.067 368 319.733 363.467 348.933C359.467 374.4 340.4 393.467 314.933 397.467C285.2 402.133 256.667 380.667 251.2 349.6C247.067 326.667 260.933 300.667 282.533 290.533C295.6 284.4 304.667 283.067 316.8 285.333Z" fill="white"/>
</svg>
